<mxfile host="app.diagrams.net" modified="2022-04-24T02:06:17.571Z" agent="5.0 (Windows NT 6.1; Win64; x64) AppleWebKit/537.36 (KHTML, like Gecko) Chrome/100.0.4896.88 Safari/537.36" etag="IMUJgbMXhZGQoJGANPu-" version="17.4.6" type="github">
  <diagram id="C5RBs43oDa-KdzZeNtuy" name="Page-1">
    <mxGraphModel dx="758" dy="763" grid="1" gridSize="10" guides="1" tooltips="1" connect="1" arrows="1" fold="1" page="1" pageScale="1" pageWidth="827" pageHeight="1169" math="0" shadow="0">
      <root>
        <mxCell id="WIyWlLk6GJQsqaUBKTNV-0" />
        <mxCell id="WIyWlLk6GJQsqaUBKTNV-1" parent="WIyWlLk6GJQsqaUBKTNV-0" />
        <mxCell id="a8gnrrw3HEgB0qu2cq8H-7" style="edgeStyle=orthogonalEdgeStyle;rounded=0;orthogonalLoop=1;jettySize=auto;html=1;entryX=0.5;entryY=0;entryDx=0;entryDy=0;" edge="1" parent="WIyWlLk6GJQsqaUBKTNV-1" source="a8gnrrw3HEgB0qu2cq8H-0" target="a8gnrrw3HEgB0qu2cq8H-6">
          <mxGeometry relative="1" as="geometry" />
        </mxCell>
        <mxCell id="a8gnrrw3HEgB0qu2cq8H-0" value="从项目配置文件中获取MongoDB有关配置" style="rounded=0;whiteSpace=wrap;html=1;" vertex="1" parent="WIyWlLk6GJQsqaUBKTNV-1">
          <mxGeometry x="250" y="40" width="120" height="60" as="geometry" />
        </mxCell>
        <mxCell id="a8gnrrw3HEgB0qu2cq8H-1" value="将item(资讯数据)写入数据库" style="rounded=0;whiteSpace=wrap;html=1;" vertex="1" parent="WIyWlLk6GJQsqaUBKTNV-1">
          <mxGeometry x="250" y="540" width="120" height="60" as="geometry" />
        </mxCell>
        <mxCell id="a8gnrrw3HEgB0qu2cq8H-9" style="edgeStyle=orthogonalEdgeStyle;rounded=0;orthogonalLoop=1;jettySize=auto;html=1;entryX=0.5;entryY=0;entryDx=0;entryDy=0;" edge="1" parent="WIyWlLk6GJQsqaUBKTNV-1" source="a8gnrrw3HEgB0qu2cq8H-4" target="a8gnrrw3HEgB0qu2cq8H-5">
          <mxGeometry relative="1" as="geometry" />
        </mxCell>
        <mxCell id="a8gnrrw3HEgB0qu2cq8H-11" style="edgeStyle=orthogonalEdgeStyle;rounded=0;orthogonalLoop=1;jettySize=auto;html=1;entryX=1;entryY=0.5;entryDx=0;entryDy=0;" edge="1" parent="WIyWlLk6GJQsqaUBKTNV-1" source="a8gnrrw3HEgB0qu2cq8H-4" target="a8gnrrw3HEgB0qu2cq8H-6">
          <mxGeometry relative="1" as="geometry">
            <Array as="points">
              <mxPoint x="440" y="310" />
              <mxPoint x="440" y="180" />
            </Array>
          </mxGeometry>
        </mxCell>
        <mxCell id="a8gnrrw3HEgB0qu2cq8H-4" value="资讯数据内容是否为空" style="rhombus;whiteSpace=wrap;html=1;" vertex="1" parent="WIyWlLk6GJQsqaUBKTNV-1">
          <mxGeometry x="235" y="270" width="150" height="80" as="geometry" />
        </mxCell>
        <mxCell id="a8gnrrw3HEgB0qu2cq8H-10" style="edgeStyle=orthogonalEdgeStyle;rounded=0;orthogonalLoop=1;jettySize=auto;html=1;entryX=0.5;entryY=0;entryDx=0;entryDy=0;" edge="1" parent="WIyWlLk6GJQsqaUBKTNV-1" source="a8gnrrw3HEgB0qu2cq8H-5" target="a8gnrrw3HEgB0qu2cq8H-1">
          <mxGeometry relative="1" as="geometry" />
        </mxCell>
        <mxCell id="a8gnrrw3HEgB0qu2cq8H-17" style="edgeStyle=orthogonalEdgeStyle;rounded=0;orthogonalLoop=1;jettySize=auto;html=1;entryX=0;entryY=0.5;entryDx=0;entryDy=0;" edge="1" parent="WIyWlLk6GJQsqaUBKTNV-1" source="a8gnrrw3HEgB0qu2cq8H-5" target="a8gnrrw3HEgB0qu2cq8H-6">
          <mxGeometry relative="1" as="geometry">
            <Array as="points">
              <mxPoint x="200" y="455" />
              <mxPoint x="200" y="180" />
            </Array>
          </mxGeometry>
        </mxCell>
        <mxCell id="a8gnrrw3HEgB0qu2cq8H-5" value="数据是否已经存在" style="rhombus;whiteSpace=wrap;html=1;" vertex="1" parent="WIyWlLk6GJQsqaUBKTNV-1">
          <mxGeometry x="240" y="420" width="140" height="70" as="geometry" />
        </mxCell>
        <mxCell id="a8gnrrw3HEgB0qu2cq8H-8" style="edgeStyle=orthogonalEdgeStyle;rounded=0;orthogonalLoop=1;jettySize=auto;html=1;entryX=0.5;entryY=0;entryDx=0;entryDy=0;" edge="1" parent="WIyWlLk6GJQsqaUBKTNV-1" source="a8gnrrw3HEgB0qu2cq8H-6" target="a8gnrrw3HEgB0qu2cq8H-4">
          <mxGeometry relative="1" as="geometry" />
        </mxCell>
        <mxCell id="a8gnrrw3HEgB0qu2cq8H-6" value="从管道中获取item" style="rounded=0;whiteSpace=wrap;html=1;" vertex="1" parent="WIyWlLk6GJQsqaUBKTNV-1">
          <mxGeometry x="250" y="150" width="120" height="60" as="geometry" />
        </mxCell>
        <mxCell id="a8gnrrw3HEgB0qu2cq8H-12" value="否" style="text;html=1;align=center;verticalAlign=middle;resizable=0;points=[];autosize=1;strokeColor=none;fillColor=none;" vertex="1" parent="WIyWlLk6GJQsqaUBKTNV-1">
          <mxGeometry x="305" y="370" width="30" height="20" as="geometry" />
        </mxCell>
        <mxCell id="a8gnrrw3HEgB0qu2cq8H-13" value="是" style="text;html=1;align=center;verticalAlign=middle;resizable=0;points=[];autosize=1;strokeColor=none;fillColor=none;" vertex="1" parent="WIyWlLk6GJQsqaUBKTNV-1">
          <mxGeometry x="390" y="290" width="30" height="20" as="geometry" />
        </mxCell>
        <mxCell id="a8gnrrw3HEgB0qu2cq8H-14" value="否" style="text;html=1;align=center;verticalAlign=middle;resizable=0;points=[];autosize=1;strokeColor=none;fillColor=none;" vertex="1" parent="WIyWlLk6GJQsqaUBKTNV-1">
          <mxGeometry x="305" y="500" width="30" height="20" as="geometry" />
        </mxCell>
        <mxCell id="a8gnrrw3HEgB0qu2cq8H-18" value="是" style="text;html=1;align=center;verticalAlign=middle;resizable=0;points=[];autosize=1;strokeColor=none;fillColor=none;" vertex="1" parent="WIyWlLk6GJQsqaUBKTNV-1">
          <mxGeometry x="205" y="430" width="30" height="20" as="geometry" />
        </mxCell>
      </root>
    </mxGraphModel>
  </diagram>
</mxfile>
